<svg xmlns="http://www.w3.org/2000/svg" viewBox="0 0 1440 320" preserveAspectRatio="none">
    <path fill="black" d="M0,32L26.7,58.7C53.3,85,107,139,160,165.3C213.3,192,267,192,320,170.7C373.3,149,427,107,480,106.7C533.3,107,587,149,640,181.3C693.3,213,747,235,800,229.3C853.3,224,907,192,960,160C1013.3,128,1067,96,1120,112C1173.3,128,1227,192,1280,192C1333.3,192,1387,128,1413,96L1440,64L1440,0L1413.3,0C1386.7,0,1333,0,1280,0C1226.7,0,1173,0,1120,0C1066.7,0,1013,0,960,0C906.7,0,853,0,800,0C746.7,0,693,0,640,0C586.7,0,533,0,480,0C426.7,0,373,0,320,0C266.7,0,213,0,160,0C106.7,0,53,0,27,0L0,0Z"/>
</svg>
